<?xml version="1.0" encoding="UTF-8"?>
<svg width="96" height="96" viewBox="0 0 96 96" xmlns="http://www.w3.org/2000/svg" role="img" aria-label="Chat Bee">
  <defs>
    <linearGradient id="g" x1="0" y1="0" x2="1" y2="1">
      <stop offset="0%" stop-color="#FFC107"/>
      <stop offset="100%" stop-color="#FF9800"/>
    </linearGradient>
  </defs>
  <rect width="96" height="96" rx="12" fill="#ffffff"/>
  <g transform="translate(8,12)">
    <path d="M12 60c-5 0-10 5-10 10v6l10-5 10 5v-6c0-5-5-10-10-10z" fill="#E0E0E0"/>
    <ellipse cx="40" cy="32" rx="28" ry="22" fill="url(#g)" stroke="#212121" stroke-width="2"/>
    <path d="M22 32h36" stroke="#212121" stroke-width="6" stroke-linecap="round"/>
    <path d="M24 22h32" stroke="#212121" stroke-width="6" stroke-linecap="round"/>
    <path d="M24 42h32" stroke="#212121" stroke-width="6" stroke-linecap="round"/>
    <circle cx="28" cy="28" r="3" fill="#212121"/>
    <circle cx="36" cy="28" r="3" fill="#212121"/>
    <path d="M40 8c3-6 12-6 15 0" stroke="#90CAF9" stroke-width="3" fill="none" stroke-linecap="round"/>
    <path d="M28 8c-3-6-12-6-15 0" stroke="#90CAF9" stroke-width="3" fill="none" stroke-linecap="round"/>
  </g>
</svg>
